<svg width="136" height="136" viewBox="0 0 136 136" fill="none" xmlns="http://www.w3.org/2000/svg">
<path fill-rule="evenodd" clip-rule="evenodd" d="M95.9323 60.3111C93.0715 63.11 89.1906 64.683 85.1441 64.683H79.8099H59.2713C50.1564 64.683 44.4611 74.3464 49.0214 82.0744L48.9801 82.0975L75.6503 127.292C78.8301 132.681 84.7032 136 91.0586 136C104.761 136 113.322 121.473 106.467 109.856L99.2165 97.5695C107.415 95.2597 114.964 90.947 121.104 84.9392C121.364 84.6854 121.62 84.4289 121.873 84.1708C130.929 74.9194 136 62.5931 136 49.7561C136 36.9188 130.929 24.593 121.873 15.3417C121.62 15.0832 121.364 14.8269 121.104 14.5733C111.568 5.24215 98.6323 2.1749e-06 85.1441 0H17.8111C4.1177 0 -4.43856 14.5177 2.41246 26.1275C5.59018 31.5125 11.4596 34.8292 17.8111 34.8292H85.1441C89.1906 34.8292 93.0715 36.4019 95.9323 39.2012C98.7938 42.0006 100.401 45.7972 100.401 49.7561C100.401 53.715 98.7938 57.5114 95.9323 60.3111ZM18.2593 136C28.3436 136 36.5185 127.825 36.5185 117.741C36.5185 107.656 28.3436 99.4815 18.2593 99.4815C8.17495 99.4815 0 107.656 0 117.741C0 127.825 8.17495 136 18.2593 136Z" fill="#004FFF"/>
</svg>
